<svg width="100" height="100" viewBox="0 0 100 100" fill="none" xmlns="http://www.w3.org/2000/svg">
<rect width="100" height="100" fill="white"/>
<path d="M21.1835 95.5278C19.8673 95.7675 18.5909 95.8456 17.3168 95.5394C14.5714 94.8795 13.156 92.457 13.9121 89.722C14.3636 88.0888 15.3593 86.9724 17.0228 86.5393C17.4324 86.4327 17.5881 86.2081 17.631 85.8405C17.7344 84.9532 17.8598 84.0672 17.9259 83.1769C18.0283 81.798 18.0546 80.4156 18.0507 79.0318C18.0396 75.1257 18.0846 71.2189 18.0353 67.3133C17.9828 63.1608 17.4229 59.0931 15.9393 55.1705C15.0714 52.8759 14.3159 50.5339 13.7501 48.1402C13.663 47.7719 13.4637 47.6378 13.1178 47.594C11.3162 47.366 9.58385 46.8881 7.91678 46.1617C6.94777 45.7395 5.95526 45.3715 4.98257 44.9574C3.1798 44.1899 1.82922 42.1012 1.94008 40.1442C2.03184 38.5244 2.22578 36.9135 2.46549 35.3041C3.06101 31.3057 4.95161 28.0324 7.80393 25.236C11.0445 22.059 14.799 19.8533 19.285 18.9701C21.3149 18.5705 23.3575 18.5897 25.4058 18.7586C28.4883 19.0128 31.5146 19.6384 34.5574 20.1536C34.8208 20.1982 35.033 20.143 35.242 19.9912C39.1547 17.1492 43.4625 14.984 47.7055 12.7058C51.7048 10.5584 55.6649 8.33981 59.6113 6.09642C61.7324 4.89065 63.8458 3.65942 66.1691 2.86561C67.7034 2.34138 69.2709 2.02082 70.911 2.2013C73.5915 2.49628 75.3143 4.1159 75.8111 6.79653C76.116 8.44134 75.9227 10.0341 75.3661 11.5896C75.2383 11.9467 75.3211 12.1221 75.5978 12.3598C77.3564 13.8706 78.1987 15.867 77.8676 18.1007C77.1919 22.6599 74.4512 25.5897 70.129 27.083C67.458 28.0058 64.6782 28.4412 61.9097 28.9362C58.14 29.6102 54.3442 29.9514 50.516 30.0394C48.3679 30.0887 46.2201 30.0562 44.0728 30.1119C43.6325 30.1233 43.1975 30.1775 42.7695 30.273C42.146 30.4122 41.7008 30.7828 41.554 31.4093C41.3058 32.4683 41.1041 33.538 40.8783 34.6023C40.8353 34.8053 40.9609 34.9003 41.0962 34.9963C42.1177 35.7214 43.1293 36.4611 44.1642 37.1664C45.059 37.7762 46.082 38.0651 47.1482 38.1381C49.6823 38.3117 52.2172 38.267 54.7511 38.0903C57.9314 37.8684 61.1138 37.6748 64.3045 37.7639C67.8862 37.864 71.0744 38.9897 73.8583 41.3016C75.4104 42.5906 77.0207 43.8113 78.4514 45.2373C79.926 46.7071 81.4385 48.1513 82.7109 49.803C83.9076 51.3564 84.7263 53.1427 85.5627 54.9071C86.9662 57.8678 87.5428 61.0511 88.0174 64.2567C88.2067 65.5355 88.1692 66.8179 87.9365 68.0926C87.9174 68.1975 87.8865 68.3165 88.0185 68.4743C88.5167 68.0992 89.0228 67.728 89.5179 67.3427C90.1728 66.8332 90.8186 66.3118 91.4693 65.7968C92.1626 65.2481 92.7134 65.1634 93.3043 65.5118C93.8339 65.8241 94.0634 66.4207 93.8811 67.2294C93.0808 70.7795 92.6541 74.4078 91.6298 77.9112C90.8124 80.7069 89.4034 83.1347 87.2439 85.1115C86.197 86.0699 84.9803 86.7539 83.6895 87.3077C82.405 87.8589 81.119 88.4193 79.7378 88.6939C79.4508 88.7509 79.4386 88.9254 79.4094 89.146C79.2838 90.0956 79.3137 91.0601 79.0925 92.0019C78.6719 93.7922 77.5979 95.0003 75.9008 95.6665C74.4022 96.2549 72.8443 96.3886 71.2499 96.2647C69.662 96.1414 68.0705 96.0623 66.4834 95.9301C64.7122 95.7826 62.9391 95.7744 61.1672 95.8413C58.6821 95.9351 56.2036 96.1368 53.7282 96.3814C51.6194 96.5897 49.5014 96.5545 47.3876 96.4945C46.0086 96.4553 44.6217 96.4817 43.2539 96.2403C40.8464 95.8155 39.1321 93.9347 38.8284 91.4841C38.6185 89.7898 39.1307 88.2755 39.8123 86.7814C40.162 86.0149 40.1646 86.0036 39.5668 85.4207C38.8795 84.7506 38.182 84.0904 37.4772 83.4386C35.132 81.2696 32.9523 78.9441 30.8921 76.5048C30.853 76.4586 30.8009 76.4235 30.7131 76.3467C30.4755 77.0821 30.4276 77.809 30.3035 78.5192C29.7249 81.8318 29.3013 85.1737 28.446 88.4338C27.9782 90.2169 27.2801 91.8838 25.9267 93.2057C24.6101 94.4917 22.9942 95.1598 21.1835 95.5278ZM19.8368 93.2282C20.0781 93.1952 20.3211 93.1718 20.5604 93.1276C22.2204 92.8206 23.7178 92.216 24.7595 90.7961C25.5361 89.7374 25.9196 88.5115 26.2333 87.2608C26.7477 85.2102 27.0652 83.1209 27.3961 81.0363C27.7117 79.0483 28.0997 77.0715 28.3224 75.0684C28.3976 74.3922 28.4057 73.7042 28.5915 73.0432C28.8825 72.0083 29.9708 71.6632 30.7823 72.352C30.9535 72.4974 31.0959 72.6817 31.2324 72.8625C31.8989 73.7457 32.5366 74.6507 33.2604 75.4899C35.5382 78.1311 37.9937 80.5965 40.5816 82.9332C41.1963 83.4883 41.8416 84.039 42.2374 84.7775C42.4654 85.2028 42.6819 85.2111 43.0804 85.0615C45.4186 84.1839 47.8505 83.8028 50.34 83.759C51.9332 83.731 53.5264 83.7056 55.1168 83.8474C55.3126 83.8648 55.5113 83.8497 55.7087 83.8497C54.9529 83.322 54.1806 82.9012 53.4764 82.3768C48.288 78.5134 45.7607 73.4874 46.9592 66.9583C47.9003 61.8314 50.8621 58.3442 55.825 56.6067C58.173 55.7848 60.6037 55.3626 63.0597 55.0751C63.7758 54.9913 64.5246 54.9302 65.2239 55.2544C65.8306 55.5356 66.1298 56.1416 65.9494 56.7325C65.7601 57.3527 65.1571 57.7224 64.5012 57.5938C64.046 57.5046 63.5889 57.5173 63.1399 57.571C61.6547 57.7487 60.1768 57.9832 58.7239 58.3432C56.8662 58.8036 55.0533 59.4113 53.5012 60.5626C50.6761 62.6582 49.448 65.6278 49.1702 69.0198C48.8899 72.4431 50.0616 75.4211 52.276 77.9966C54.1818 80.2132 56.6676 81.5803 59.3269 82.6754C60.4096 83.1212 61.4886 83.5762 62.5678 84.0307C62.717 84.0936 62.8612 84.1712 63.0012 84.2533C63.6229 84.6179 63.9142 85.2051 63.7706 85.7933C63.6255 86.3876 63.0535 86.8117 62.341 86.8453C61.1659 86.9008 60.0019 86.7339 58.8393 86.6204C55.3864 86.2833 51.9308 86.045 48.4673 86.3655C46.2177 86.5737 44.0393 87.0864 42.0673 88.2673C41.8866 88.3756 41.7713 88.5026 41.6979 88.6943C41.3623 89.571 41.1759 90.4559 41.3371 91.4084C41.559 92.719 42.6396 93.7447 43.9672 93.8258C44.7139 93.8715 45.4618 93.8978 46.2085 93.9441C49.0391 94.1193 51.8673 94.071 54.6881 93.7952C57.1002 93.5593 59.5152 93.3935 61.9374 93.3276C63.9072 93.2741 65.8714 93.3679 67.8341 93.5339C68.9678 93.6298 70.1067 93.665 71.2393 93.7695C72.2539 93.8632 73.2584 93.834 74.2449 93.5981C75.4503 93.3098 76.4371 92.741 76.6872 91.3864C76.7578 91.0041 76.8194 90.6211 76.8347 90.2281C76.9378 87.5822 77.65 85.1223 78.9562 82.8038C81.0885 79.0187 83.1458 75.1936 84.584 71.0705C85.2755 69.0882 85.7906 67.0902 85.6241 64.965C85.5693 64.2657 85.4276 63.5827 85.3188 62.8932C84.7653 59.3862 83.6498 56.0799 81.8303 53.0181C81.3895 52.2765 80.9884 51.5141 80.4078 50.8648C77.9515 48.1182 75.2931 45.6 72.4079 43.2925C69.8603 41.2551 67.0418 40.2728 63.8182 40.2352C60.8054 40.2001 57.8031 40.378 54.8024 40.5885C53.9253 40.65 53.0483 40.6458 52.1718 40.6981C50.1398 40.8195 48.1041 40.7633 46.0863 40.4956C44.4336 40.2763 43.0031 39.511 41.7039 38.4814C41.2008 38.0827 40.6652 37.7251 40.1211 37.3319C40.0396 37.4786 39.9937 37.5448 39.9637 37.6176C39.1616 39.5627 38.0366 41.3089 36.6487 42.8801C35.0736 44.6632 33.3352 46.2466 31.0513 47.0922C28.8215 47.9177 26.4818 48.0702 24.1405 48.1483C22.9071 48.1895 21.6693 48.105 20.4337 48.0714C19.6374 48.0498 18.8413 48.0757 18.0442 48.0025C17.4573 47.9486 16.8615 47.9919 16.2412 47.9919C16.2668 48.1223 16.2792 48.2171 16.3042 48.3085C16.8369 50.2545 17.4377 52.1838 18.1652 54.0612C19.744 58.1355 20.4221 62.3781 20.4896 66.7035C20.5721 71.9902 20.6006 77.281 20.4191 82.568C20.3639 84.1764 20.1746 85.7763 19.8315 87.3533C19.6786 88.0565 19.252 88.5017 18.5573 88.6863C18.212 88.778 17.8559 88.8365 17.5194 88.9528C16.6704 89.2462 16.2199 90.0053 16.2229 91.086C16.2258 92.1248 16.625 92.7058 17.5247 93.0319C18.2509 93.2951 18.9987 93.2417 19.8368 93.2282ZM34.7205 41.3135C36.1158 39.6993 37.26 37.9388 37.9475 35.8993C38.4692 34.3519 38.678 32.7364 39.0352 31.1532C39.449 29.3193 40.5718 28.189 42.4225 27.7995C43.191 27.6378 43.9699 27.6173 44.7515 27.6052C46.7361 27.5743 48.7204 27.6147 50.706 27.5548C53.8789 27.4591 57.0391 27.2597 60.1696 26.7213C62.8751 26.2559 65.5875 25.8342 68.2435 25.1022C70.8028 24.3968 72.9609 23.1806 74.3526 20.8283C75.1312 19.5123 75.7103 18.1584 75.3521 16.5776C74.9324 14.7246 73.8312 13.7136 72.0954 13.6142C70.5899 13.528 69.1126 13.7077 67.6489 14.0706C65.1062 14.7009 62.7521 15.8208 60.3632 16.8476C56.8073 18.3762 53.3291 20.082 49.715 21.4793C45.4507 23.128 41.0775 23.6449 36.5427 22.9696C32.8472 22.4193 29.1958 21.5874 25.4645 21.2655C23.4141 21.0886 21.3724 21.0333 19.3497 21.4864C16.2075 22.1903 13.4213 23.6124 10.9859 25.713C9.11525 27.3263 7.36954 29.0665 6.28298 31.3225C4.85443 34.2886 4.44775 37.4738 4.54851 40.7254C4.5704 41.4318 4.91541 42.1699 5.61905 42.4862C7.41278 43.2925 9.21281 44.0974 11.1045 44.656C12.973 45.2078 14.9098 45.3672 16.8382 45.4544C19.7927 45.588 22.7521 45.7367 25.7106 45.5686C27.0401 45.4931 28.3661 45.3344 29.6488 44.9412C31.7195 44.3064 33.2651 42.9311 34.7205 41.3135ZM42.362 20.7121C44.7904 20.5449 47.0912 19.8491 49.3401 18.9754C52.7381 17.6554 56.0066 16.0356 59.3507 14.5902C61.738 13.5584 64.0922 12.4388 66.6236 11.7776C68.5698 11.2693 70.533 10.9352 72.5537 11.1849C72.863 11.2231 72.9471 11.0213 73.0236 10.7985C73.4137 9.6616 73.6108 8.50856 73.3932 7.30242C73.0949 5.64894 72.105 4.71513 70.5163 4.62636C69.648 4.57784 68.7956 4.68394 67.9553 4.89429C66.1215 5.35332 64.4598 6.21712 62.8264 7.12985C58.4387 9.58161 54.0777 12.0813 49.6569 14.4738C46.224 16.3317 42.7279 18.0753 39.4175 20.1538C39.1845 20.3001 38.954 20.4503 38.6184 20.6653C39.9354 20.8193 41.1037 20.8058 42.362 20.7121ZM90.6891 70.5372C90.7395 70.2145 90.79 69.8918 90.8533 69.4865C90.6397 69.6431 90.5117 69.7409 90.3797 69.833C89.4082 70.511 88.4968 71.2914 87.3826 71.7327C87.0263 71.8739 86.8334 72.0679 86.7061 72.4148C86.1625 73.8954 85.5939 75.3678 84.9125 76.7911C83.5988 79.535 82.1251 82.1957 80.6699 84.8657C80.488 85.1994 80.2847 85.5303 80.226 85.9603C80.7408 85.9057 81.1533 85.6684 81.584 85.5007C82.8284 85.0159 84.0651 84.5019 85.12 83.6603C87.4033 81.8388 88.6712 79.3873 89.4138 76.6226C89.945 74.6452 90.2907 72.6282 90.6891 70.5372Z" fill="#01142B"/>
<path d="M15.4146 32.1346C14.6506 30.9847 14.6674 29.8909 15.443 28.8977C16.118 28.0333 17.2796 27.6849 18.2892 28.044C19.3099 28.4071 19.9569 29.3206 19.9823 30.4344C20.0064 31.4942 19.3224 32.4993 18.3035 32.9009C17.2731 33.3071 16.2357 33.0403 15.4146 32.1346Z" fill="#01142B"/>
</svg>
