<svg width="68" height="68" viewBox="0 0 68 68" fill="none" xmlns="http://www.w3.org/2000/svg">
<g filter="url(#filter0_d_241_650)">
<rect x="9" y="7" width="50" height="50" rx="10" fill="#01142B"/>
</g>
<path d="M22.4734 50.2112C21.9469 50.3071 21.4364 50.3383 20.9268 50.2158C19.8286 49.9519 19.2624 48.9829 19.5649 47.8889C19.7455 47.2356 20.1438 46.789 20.8092 46.6158C20.973 46.5732 21.0353 46.4833 21.0524 46.3363C21.0938 45.9814 21.144 45.627 21.1704 45.2709C21.2113 44.7193 21.2219 44.1663 21.2203 43.6128C21.2159 42.0504 21.2339 40.4877 21.2141 38.9254C21.1932 37.2644 20.9692 35.6373 20.3757 34.0683C20.0286 33.1505 19.7264 32.2137 19.5001 31.2562C19.4653 31.1089 19.3855 31.0552 19.2471 31.0377C18.5265 30.9465 17.8336 30.7553 17.1667 30.4648C16.7791 30.2959 16.3821 30.1487 15.9931 29.9831C15.272 29.6761 14.7317 28.8406 14.7761 28.0578C14.8128 27.4098 14.8904 26.7655 14.9862 26.1217C15.2244 24.5224 15.9807 23.2131 17.1216 22.0945C18.4178 20.8237 19.9196 19.9414 21.7141 19.5881C22.526 19.4283 23.343 19.436 24.1623 19.5035C25.3954 19.6052 26.6059 19.8554 27.823 20.0615C27.9283 20.0794 28.0133 20.0573 28.0969 19.9966C29.6619 18.8598 31.3851 17.9937 33.0822 17.0824C34.682 16.2234 36.266 15.336 37.8446 14.4387C38.693 13.9563 39.5383 13.4639 40.4677 13.1463C41.0814 12.9366 41.7084 12.8084 42.3644 12.8806C43.4367 12.9986 44.1258 13.6465 44.3245 14.7187C44.4464 15.3766 44.3691 16.0137 44.1465 16.6359C44.0954 16.7788 44.1285 16.8489 44.2391 16.944C44.9426 17.5483 45.2795 18.3469 45.1471 19.2404C44.8768 21.064 43.7805 22.236 42.0517 22.8333C40.9832 23.2024 39.8713 23.3766 38.7639 23.5746C37.256 23.8442 35.7377 23.9807 34.2065 24.0158C33.3472 24.0356 32.4881 24.0226 31.6292 24.0449C31.453 24.0494 31.2791 24.0711 31.1078 24.1093C30.8585 24.165 30.6803 24.3132 30.6216 24.5638C30.5224 24.9874 30.4417 25.4153 30.3514 25.841C30.3341 25.9222 30.3844 25.9602 30.4385 25.9986C30.8471 26.2886 31.2517 26.5845 31.6657 26.8667C32.0236 27.1106 32.4328 27.2261 32.8593 27.2553C33.873 27.3248 34.8869 27.3069 35.9005 27.2362C37.1726 27.1475 38.4456 27.07 39.7219 27.1057C41.1545 27.1457 42.4298 27.596 43.5434 28.5207C44.1642 29.0363 44.8083 29.5246 45.3806 30.095C45.9704 30.6829 46.5755 31.2606 47.0844 31.9213C47.5631 32.5426 47.8906 33.2572 48.2251 33.9629C48.7865 35.1472 49.0171 36.4205 49.207 37.7028C49.2827 38.2143 49.2677 38.7272 49.1747 39.2371C49.167 39.2791 49.1546 39.3267 49.2075 39.3898C49.4067 39.2398 49.6092 39.0913 49.8072 38.9372C50.0692 38.7333 50.3275 38.5248 50.5877 38.3188C50.8651 38.0993 51.0854 38.0654 51.3217 38.2048C51.5336 38.3297 51.6254 38.5684 51.5525 38.8918C51.2323 40.3119 51.0617 41.7632 50.652 43.1646C50.325 44.2829 49.7614 45.254 48.8976 46.0447C48.4788 46.428 47.9921 46.7016 47.4758 46.9232C46.962 47.1437 46.4476 47.3678 45.8951 47.4776C45.7803 47.5005 45.7755 47.5702 45.7638 47.6585C45.7135 48.0383 45.7255 48.4241 45.637 48.8009C45.4688 49.517 45.0392 50.0002 44.3604 50.2667C43.7609 50.502 43.1378 50.5555 42.5 50.506C41.8648 50.4566 41.2282 50.425 40.5934 50.3721C39.8849 50.3131 39.1757 50.3099 38.4669 50.3366C37.4729 50.3741 36.4815 50.4548 35.4913 50.5526C34.6478 50.636 33.8006 50.6219 32.9551 50.5979C32.4035 50.5822 31.8487 50.5928 31.3016 50.4962C30.3386 50.3263 29.6529 49.574 29.5314 48.5937C29.4474 47.916 29.6523 47.3103 29.925 46.7127C30.0649 46.4061 30.0659 46.4015 29.8268 46.1684C29.5518 45.9003 29.2728 45.6363 28.9909 45.3755C28.0528 44.5079 27.181 43.5777 26.3569 42.602C26.3413 42.5835 26.3204 42.5695 26.2853 42.5388C26.1903 42.8329 26.1711 43.1237 26.1215 43.4078C25.89 44.7328 25.7206 46.0696 25.3785 47.3736C25.1913 48.0869 24.9121 48.7536 24.3707 49.2824C23.8441 49.7968 23.1977 50.064 22.4734 50.2112ZM21.9347 49.2914C22.0313 49.2782 22.1285 49.2688 22.2242 49.2511C22.8882 49.1283 23.4871 48.8865 23.9038 48.3185C24.2145 47.895 24.3679 47.4047 24.4934 46.9044C24.6991 46.0842 24.8261 45.2485 24.9585 44.4146C25.0847 43.6194 25.2399 42.8287 25.329 42.0274C25.3591 41.757 25.3623 41.4818 25.4366 41.2174C25.5531 40.8034 25.9883 40.6654 26.3129 40.9409C26.3815 40.9991 26.4384 41.0728 26.493 41.1451C26.7596 41.4984 27.0147 41.8604 27.3042 42.196C28.2153 43.2525 29.1975 44.2387 30.2327 45.1734C30.4786 45.3954 30.7367 45.6157 30.895 45.9111C30.9862 46.0812 31.0728 46.0845 31.2322 46.0247C32.1675 45.6736 33.1402 45.5212 34.136 45.5037C34.7733 45.4925 35.4106 45.4823 36.0468 45.539C36.1251 45.546 36.2046 45.54 36.2835 45.54C35.9812 45.3289 35.6723 45.1606 35.3906 44.9508C33.3152 43.4055 32.3043 41.395 32.7837 38.7834C33.1601 36.7326 34.3449 35.3378 36.33 34.6428C37.2692 34.314 38.2415 34.1451 39.2239 34.0301C39.5104 33.9966 39.8099 33.9722 40.0896 34.1018C40.3323 34.2143 40.4519 34.4567 40.3798 34.6931C40.3041 34.9412 40.0629 35.089 39.8005 35.0376C39.6184 35.0019 39.4356 35.007 39.256 35.0285C38.6619 35.0996 38.0707 35.1934 37.4896 35.3374C36.7465 35.5215 36.0214 35.7646 35.4005 36.2251C34.2705 37.0634 33.7792 38.2512 33.6681 39.608C33.556 40.9773 34.0247 42.1685 34.9105 43.1987C35.6727 44.0854 36.6671 44.6322 37.7308 45.0702C38.1639 45.2486 38.5955 45.4306 39.0271 45.6124C39.0869 45.6375 39.1445 45.6686 39.2005 45.7014C39.4492 45.8472 39.5657 46.0821 39.5083 46.3174C39.4503 46.5551 39.2214 46.7248 38.9364 46.7382C38.4664 46.7604 38.0008 46.6936 37.5358 46.6483C36.1546 46.5134 34.7724 46.4181 33.387 46.5463C32.4871 46.6296 31.6157 46.8347 30.827 47.307C30.7547 47.3503 30.7086 47.4011 30.6792 47.4778C30.5449 47.8285 30.4704 48.1825 30.5349 48.5634C30.6236 49.0877 31.0559 49.498 31.5869 49.5304C31.8856 49.5487 32.1848 49.5592 32.4834 49.5777C33.6157 49.6478 34.7469 49.6285 35.8753 49.5182C36.8401 49.4238 37.8061 49.3575 38.775 49.3311C39.5629 49.3097 40.3486 49.3472 41.1337 49.4136C41.5871 49.452 42.0427 49.4661 42.4958 49.5079C42.9016 49.5454 43.3034 49.5337 43.698 49.4393C44.1802 49.324 44.5749 49.0965 44.6749 48.5546C44.7031 48.4017 44.7278 48.2485 44.7339 48.0913C44.7752 47.033 45.06 46.049 45.5825 45.1216C46.4354 43.6076 47.2584 42.0775 47.8336 40.4283C48.1102 39.6353 48.3163 38.8362 48.2497 37.9861C48.2278 37.7064 48.1711 37.4332 48.1276 37.1574C47.9062 35.7546 47.4599 34.432 46.7321 33.2073C46.5559 32.9107 46.3954 32.6057 46.1631 32.346C45.1806 31.2474 44.1173 30.2401 42.9632 29.3171C41.9442 28.5021 40.8167 28.1092 39.5273 28.0942C38.3222 28.0801 37.1213 28.1513 35.921 28.2355C35.5702 28.2601 35.2194 28.2584 34.8687 28.2793C34.056 28.3279 33.2417 28.3054 32.4346 28.1983C31.7735 28.1106 31.2013 27.8045 30.6816 27.3926C30.4804 27.2332 30.2661 27.0901 30.0485 26.9329C30.0159 26.9915 29.9975 27.018 29.9855 27.0471C29.6647 27.8252 29.2147 28.5237 28.6595 29.1521C28.0295 29.8654 27.3341 30.4987 26.4206 30.837C25.5287 31.1672 24.5928 31.2282 23.6562 31.2594C23.1629 31.2759 22.6678 31.2421 22.1735 31.2286C21.855 31.22 21.5366 31.2304 21.2177 31.2011C20.983 31.1795 20.7446 31.1969 20.4965 31.1969C20.5067 31.249 20.5117 31.2869 20.5217 31.3235C20.7348 32.1019 20.9751 32.8736 21.2661 33.6246C21.8976 35.2543 22.1689 36.9513 22.1959 38.6815C22.2289 40.7962 22.2403 42.9125 22.1677 45.0273C22.1456 45.6707 22.0699 46.3106 21.9327 46.9414C21.8715 47.2227 21.7008 47.4008 21.423 47.4746C21.2848 47.5113 21.1424 47.5347 21.0078 47.5812C20.6682 47.6986 20.488 48.0022 20.4892 48.4345C20.4903 48.85 20.6501 49.0824 21.0099 49.2128C21.3004 49.3181 21.5995 49.2968 21.9347 49.2914ZM27.8882 28.5255C28.4464 27.8798 28.9041 27.1756 29.179 26.3598C29.3877 25.7408 29.4713 25.0946 29.6141 24.4614C29.7796 23.7278 30.2288 23.2757 30.969 23.1199C31.2764 23.0552 31.588 23.047 31.9006 23.0422C32.6945 23.0298 33.4882 23.046 34.2825 23.022C35.5516 22.9837 36.8157 22.904 38.0679 22.6886C39.1501 22.5024 40.235 22.3338 41.2974 22.041C42.3212 21.7588 43.1844 21.2723 43.7411 20.3314C44.0525 19.805 44.2841 19.2635 44.1409 18.6311C43.973 17.8899 43.5325 17.4855 42.8382 17.4458C42.236 17.4113 41.6451 17.4832 41.0596 17.6283C40.0425 17.8804 39.1009 18.3284 38.1453 18.7391C36.7229 19.3506 35.3317 20.0329 33.886 20.5918C32.1803 21.2513 30.431 21.4581 28.6171 21.1879C27.1389 20.9678 25.6783 20.635 24.1858 20.5063C23.3657 20.4355 22.549 20.4134 21.7399 20.5947C20.483 20.8762 19.3686 21.4451 18.3944 22.2853C17.6461 22.9306 16.9479 23.6267 16.5132 24.5291C15.9418 25.7155 15.7791 26.9896 15.8194 28.2902C15.8282 28.5728 15.9662 28.8681 16.2477 28.9946C16.9651 29.3171 17.6852 29.6391 18.4419 29.8625C19.1893 30.0832 19.964 30.147 20.7353 30.1818C21.9171 30.2353 23.1009 30.2948 24.2843 30.2275C24.8161 30.1973 25.3465 30.1339 25.8596 29.9766C26.6878 29.7227 27.3061 29.1726 27.8882 28.5255ZM30.9449 20.2849C31.9162 20.2181 32.8365 19.9397 33.7361 19.5903C35.0953 19.0622 36.4027 18.4143 37.7403 17.8362C38.6952 17.4234 39.6369 16.9756 40.6495 16.7111C41.428 16.5078 42.2132 16.3742 43.0215 16.474C43.1452 16.4893 43.1789 16.4086 43.2095 16.3195C43.3655 15.8647 43.4443 15.4035 43.3573 14.9211C43.238 14.2597 42.842 13.8861 42.2066 13.8506C41.8592 13.8312 41.5183 13.8737 41.1822 13.9578C40.4487 14.1414 39.784 14.4869 39.1306 14.852C37.3755 15.8327 35.6311 16.8326 33.8628 17.7896C32.4897 18.5328 31.0912 19.2302 29.767 20.0616C29.6738 20.1201 29.5816 20.1802 29.4474 20.2662C29.9742 20.3278 30.4415 20.3224 30.9449 20.2849ZM50.2757 40.215C50.2958 40.0859 50.316 39.9568 50.3414 39.7947C50.2559 39.8573 50.2047 39.8965 50.1519 39.9333C49.7633 40.2045 49.3988 40.5167 48.9531 40.6932C48.8106 40.7496 48.7334 40.8273 48.6825 40.966C48.465 41.5583 48.2376 42.1472 47.965 42.7165C47.4395 43.8141 46.8501 44.8783 46.268 45.9464C46.1952 46.0799 46.1139 46.2122 46.0904 46.3842C46.2963 46.3624 46.4614 46.2675 46.6337 46.2004C47.1314 46.0065 47.6261 45.8008 48.048 45.4642C48.9614 44.7356 49.4685 43.755 49.7656 42.6491C49.978 41.8582 50.1163 41.0514 50.2757 40.215Z" fill="white"/>
<path d="M20.1658 24.8539C19.8602 24.3939 19.8669 23.9564 20.1772 23.5591C20.4472 23.2133 20.9118 23.074 21.3156 23.2176C21.7239 23.3629 21.9827 23.7283 21.9929 24.1738C22.0025 24.5977 21.7289 24.9998 21.3214 25.1604C20.9092 25.3229 20.4943 25.2161 20.1658 24.8539Z" fill="white"/>
<defs>
<filter id="filter0_d_241_650" x="0" y="0" width="68" height="68" filterUnits="userSpaceOnUse" color-interpolation-filters="sRGB">
<feFlood flood-opacity="0" result="BackgroundImageFix"/>
<feColorMatrix in="SourceAlpha" type="matrix" values="0 0 0 0 0 0 0 0 0 0 0 0 0 0 0 0 0 0 127 0" result="hardAlpha"/>
<feOffset dy="2"/>
<feGaussianBlur stdDeviation="4.5"/>
<feComposite in2="hardAlpha" operator="out"/>
<feColorMatrix type="matrix" values="0 0 0 0 0 0 0 0 0 0 0 0 0 0 0 0 0 0 0.15 0"/>
<feBlend mode="normal" in2="BackgroundImageFix" result="effect1_dropShadow_241_650"/>
<feBlend mode="normal" in="SourceGraphic" in2="effect1_dropShadow_241_650" result="shape"/>
</filter>
</defs>
</svg>
