<svg width="80" height="80" viewBox="0 0 80 80" fill="none" xmlns="http://www.w3.org/2000/svg">
<path d="M16.9469 76.4222C15.8939 76.6139 14.8728 76.6764 13.8536 76.4314C11.6572 75.9035 10.5249 73.9655 11.1298 71.7775C11.491 70.4709 12.2876 69.5779 13.6183 69.2314C13.946 69.1461 14.0706 68.9664 14.1049 68.6724C14.1876 67.9625 14.2879 67.2537 14.3408 66.5415C14.4227 65.4383 14.4438 64.3324 14.4406 63.2254C14.4317 60.1005 14.4678 56.9751 14.4283 53.8506C14.3863 50.5286 13.9384 47.2745 12.7515 44.1363C12.0572 42.3007 11.4528 40.4271 11.0002 38.5121C10.9305 38.2175 10.7711 38.1102 10.4943 38.0752C9.05303 37.8927 7.66716 37.5104 6.33351 36.9293C5.5583 36.5915 4.76429 36.2971 3.98614 35.9659C2.54392 35.3519 1.46346 33.6809 1.55215 32.1153C1.62555 30.8194 1.78071 29.5307 1.97247 28.2432C2.44889 25.0445 3.96137 22.4259 6.24323 20.1888C8.83569 17.6471 11.8393 15.8826 15.4281 15.176C17.052 14.8563 18.6861 14.8717 20.3247 15.0068C22.7907 15.2102 25.2118 15.7106 27.646 16.1228C27.8567 16.1585 28.0265 16.1144 28.1937 15.9929C31.3239 13.7193 34.7701 11.9871 38.1645 10.1645C41.3639 8.44663 44.532 6.67179 47.6891 4.87708C49.386 3.91246 51.0767 2.92748 52.9354 2.29243C54.1628 1.87304 55.4168 1.6166 56.7289 1.76098C58.8733 1.99696 60.2515 3.29266 60.649 5.43716C60.8929 6.75301 60.7382 8.02721 60.293 9.27163C60.1907 9.55733 60.2569 9.69759 60.4783 9.88777C61.8852 11.0964 62.559 12.6935 62.2942 14.4805C61.7536 18.1278 59.5611 20.4717 56.1033 21.6663C53.9665 22.4046 51.7427 22.7529 49.5279 23.1489C46.5121 23.6881 43.4755 23.9611 40.4129 24.0314C38.6944 24.0709 36.9762 24.0449 35.2584 24.0895C34.9061 24.0986 34.5581 24.1419 34.2157 24.2184C33.7169 24.3297 33.3607 24.6262 33.2433 25.1274C33.0448 25.9745 32.8833 26.8304 32.7027 27.6818C32.6683 27.8442 32.7688 27.9202 32.8771 27.997C33.6943 28.577 34.5035 29.1688 35.3315 29.7331C36.0473 30.2209 36.8657 30.452 37.7186 30.5104C39.7459 30.6493 41.7738 30.6135 43.8009 30.4721C46.3452 30.2947 48.8911 30.1398 51.4437 30.2111C54.309 30.2911 56.8596 31.1917 59.0867 33.0412C60.3284 34.0724 61.6167 35.049 62.7612 36.1898C63.9409 37.3656 65.1509 38.521 66.1688 39.8424C67.1261 41.085 67.7811 42.5141 68.4502 43.9256C69.5731 46.2942 70.0343 48.8408 70.414 51.4053C70.5655 52.4284 70.5355 53.4542 70.3493 54.474C70.334 54.558 70.3092 54.6531 70.4149 54.7794C70.8134 54.4793 71.2183 54.1823 71.6144 53.8741C72.1384 53.4665 72.6549 53.0494 73.1755 52.6374C73.7302 52.1984 74.1708 52.1306 74.6435 52.4094C75.0672 52.6592 75.2508 53.1365 75.1049 53.7835C74.4647 56.6236 74.1233 59.5262 73.3039 62.3289C72.65 64.5655 71.5228 66.5077 69.7952 68.0892C68.9577 68.8558 67.9843 69.403 66.9517 69.8461C65.9241 70.2871 64.8953 70.7353 63.7903 70.955C63.5607 71.0007 63.551 71.1402 63.5276 71.3167C63.4271 72.0764 63.4511 72.848 63.2741 73.6015C62.9376 75.0337 62.0784 76.0002 60.7207 76.5332C59.5218 77.0038 58.2756 77.1108 57 77.0117C55.7297 76.913 54.4565 76.8497 53.1868 76.744C51.7698 76.626 50.3513 76.6195 48.9338 76.673C46.9458 76.748 44.963 76.9094 42.9827 77.105C41.2956 77.2717 39.6012 77.2435 37.9102 77.1955C36.807 77.1642 35.6975 77.1853 34.6032 76.9922C32.6772 76.6524 31.3058 75.1477 31.0628 73.1872C30.8949 71.8318 31.3046 70.6203 31.85 69.4251C32.1297 68.8119 32.1318 68.8028 31.6535 68.3365C31.1037 67.8004 30.5457 67.2723 29.9818 66.7508C28.1057 65.0156 26.3619 63.1552 24.7137 61.2038C24.6825 61.1668 24.6408 61.1388 24.5705 61.0773C24.3805 61.6656 24.3422 62.2471 24.2429 62.8153C23.78 65.4653 23.4411 68.1389 22.7569 70.7469C22.3827 72.1735 21.8242 73.5069 20.7415 74.5645C19.6881 75.5933 18.3954 76.1278 16.9469 76.4222ZM15.8695 74.5825C16.0625 74.5561 16.257 74.5374 16.4484 74.502C17.7764 74.2564 18.9743 73.7728 19.8077 72.6368C20.429 71.7898 20.7357 70.8092 20.9867 69.8086C21.3983 68.1681 21.6522 66.4967 21.917 64.829C22.1695 63.2386 22.4799 61.6572 22.658 60.0546C22.7182 59.5137 22.7246 58.9633 22.8733 58.4345C23.1061 57.6065 23.9767 57.3305 24.6259 57.8816C24.7629 57.9979 24.8768 58.1453 24.986 58.2899C25.5192 58.9965 26.0294 59.7205 26.6084 60.3919C28.4307 62.5048 30.395 64.4771 32.4654 66.3465C32.9572 66.7906 33.4734 67.2311 33.79 67.8219C33.9724 68.1622 34.1456 68.1688 34.4644 68.0491C36.335 67.347 38.2805 67.0422 40.2721 67.0071C41.5466 66.9847 42.8212 66.9644 44.0935 67.0778C44.2502 67.0918 44.4091 67.0797 44.567 67.0797C43.9624 66.6576 43.3445 66.3209 42.7812 65.9014C38.6305 62.8107 36.6086 58.7898 37.5674 53.5665C38.3203 49.4651 40.6897 46.6753 44.6601 45.2853C46.5385 44.6278 48.483 44.29 50.4479 44.06C51.0207 43.993 51.6197 43.9441 52.1792 44.2034C52.6646 44.4284 52.9039 44.9132 52.7596 45.3859C52.6082 45.8821 52.1258 46.1778 51.601 46.075C51.2369 46.0036 50.8712 46.0138 50.512 46.0568C49.3239 46.1989 48.1415 46.3865 46.9792 46.6745C45.493 47.0428 44.0427 47.529 42.8011 48.45C40.541 50.1265 39.5585 52.5022 39.3363 55.2158C39.112 57.9544 40.0494 60.3368 41.8209 62.3972C43.3455 64.1705 45.3342 65.2641 47.4616 66.1402C48.3278 66.4969 49.191 66.8609 50.0543 67.2245C50.1737 67.2748 50.2891 67.3369 50.401 67.4025C50.8984 67.6942 51.1314 68.164 51.0165 68.6346C50.9005 69.11 50.4429 69.4493 49.8729 69.4762C48.9328 69.5206 48.0016 69.3871 47.0715 69.2963C44.3092 69.0266 41.5447 68.8359 38.7739 69.0924C36.9743 69.2589 35.2315 69.6691 33.654 70.6138C33.5093 70.7004 33.4171 70.802 33.3584 70.9553C33.0899 71.6567 32.9408 72.3647 33.0698 73.1266C33.2473 74.1751 34.1118 74.9957 35.1739 75.0606C35.7712 75.0971 36.3695 75.1182 36.9669 75.1552C39.2314 75.2954 41.4939 75.2567 43.7505 75.0361C45.6802 74.8474 47.6122 74.7147 49.55 74.662C51.1258 74.6192 52.6972 74.6943 54.2674 74.827C55.1743 74.9038 56.0854 74.9319 56.9916 75.0155C57.8032 75.0905 58.6068 75.0671 59.396 74.8784C60.3603 74.6478 61.1497 74.1927 61.3498 73.109C61.4063 72.8032 61.4556 72.4968 61.4678 72.1824C61.5504 70.0657 62.1201 68.0978 63.165 66.2429C64.8709 63.2149 66.5167 60.1548 67.6673 56.8563C68.2204 55.2705 68.6326 53.6721 68.4994 51.9719C68.4555 51.4125 68.3422 50.8661 68.2551 50.3145C67.8123 47.5089 66.9199 44.8638 65.4643 42.4144C65.1117 41.8211 64.7908 41.2112 64.3263 40.6918C62.3613 38.4945 60.2345 36.4799 57.9264 34.634C55.8884 33.004 53.6335 32.2182 51.0546 32.1881C48.6444 32.16 46.2426 32.3024 43.842 32.4707C43.1403 32.5199 42.4387 32.5166 41.7375 32.5584C40.112 32.6555 38.4834 32.6106 36.8691 32.3964C35.547 32.221 34.4026 31.6087 33.3632 30.7851C32.9607 30.4661 32.5322 30.18 32.097 29.8655C32.0317 29.9828 31.995 30.0358 31.971 30.094C31.3294 31.6501 30.4294 33.0471 29.319 34.304C28.0589 35.7305 26.6682 36.9972 24.8411 37.6737C23.0573 38.3341 21.1855 38.4561 19.3125 38.5186C18.3258 38.5515 17.3356 38.4839 16.347 38.457C15.71 38.4397 15.0731 38.4605 14.4355 38.4019C13.9659 38.3588 13.4893 38.3935 12.993 38.3935C13.0135 38.4978 13.0235 38.5737 13.0435 38.6468C13.4696 40.2035 13.9503 41.747 14.5322 43.2489C15.7952 46.5083 16.3378 49.9024 16.3918 53.3627C16.4577 57.5921 16.4805 61.8248 16.3354 66.0543C16.2912 67.3411 16.1397 68.621 15.8653 69.8826C15.743 70.4451 15.4017 70.8013 14.8459 70.949C14.5697 71.0224 14.2848 71.0691 14.0156 71.1621C13.3364 71.3969 12.976 72.0042 12.9784 72.8688C12.9807 73.6998 13.3001 74.1646 14.0198 74.4254C14.6008 74.636 15.199 74.5933 15.8695 74.5825ZM27.7765 33.0507C28.8928 31.7594 29.8081 30.3509 30.3581 28.7194C30.7754 27.4814 30.9425 26.189 31.2283 24.9225C31.5593 23.4554 32.4575 22.5512 33.9381 22.2396C34.5529 22.1102 35.176 22.0938 35.8013 22.0841C37.389 22.0594 38.9764 22.0917 40.5649 22.0438C43.1032 21.9672 45.6313 21.8077 48.1357 21.3769C50.3002 21.0046 52.4701 20.6673 54.5949 20.0817C56.6423 19.5174 58.3688 18.5444 59.4821 16.6626C60.1051 15.6097 60.5683 14.5267 60.2818 13.262C59.946 11.7797 59.0651 10.9708 57.6764 10.8913C56.472 10.8223 55.2902 10.9661 54.1192 11.2564C52.085 11.7606 50.2018 12.6565 48.2906 13.478C45.4459 14.7009 42.6633 16.0656 39.7721 17.1834C36.3606 18.5023 32.8621 18.9159 29.2343 18.3756C26.2779 17.9353 23.3567 17.2698 20.3717 17.0123C18.7314 16.8708 17.098 16.8265 15.4798 17.1891C12.9661 17.7522 10.7371 18.8899 8.78877 20.5703C7.29228 21.861 5.89572 23.2531 5.02647 25.0579C3.88363 27.4308 3.55829 29.979 3.63889 32.5802C3.6564 33.1454 3.93241 33.7359 4.49532 33.9889C5.93031 34.634 7.37033 35.2779 8.88371 35.7248C10.3785 36.1661 11.9279 36.2937 13.4706 36.3634C15.8342 36.4704 18.2018 36.5893 20.5686 36.4548C21.6322 36.3944 22.6929 36.2675 23.7191 35.9529C25.3757 35.4451 26.6122 34.3449 27.7765 33.0507ZM33.8897 16.5697C35.8324 16.4359 37.673 15.8792 39.4721 15.1803C42.1906 14.1242 44.8054 12.8284 47.4807 11.6721C49.3905 10.8466 51.2738 9.95097 53.2989 9.42203C54.856 9.01536 56.4265 8.74811 58.043 8.94785C58.2905 8.97842 58.3578 8.81701 58.419 8.6387C58.7311 7.72922 58.8887 6.80678 58.7146 5.84188C58.476 4.51909 57.6841 3.77204 56.4132 3.70103C55.7185 3.66221 55.0366 3.74709 54.3643 3.91537C52.8973 4.2826 51.568 4.97363 50.2612 5.70382C46.751 7.66523 43.2622 9.66496 39.7256 11.579C36.9793 13.0653 34.1824 14.4602 31.5341 16.123C31.3477 16.24 31.1633 16.3602 30.8948 16.5322C31.9484 16.6554 32.883 16.6446 33.8897 16.5697ZM72.5513 56.4297C72.5917 56.1716 72.6321 55.9134 72.6828 55.5891C72.5119 55.7144 72.4094 55.7927 72.3038 55.8664C71.5267 56.4087 70.7976 57.0331 69.9062 57.3861C69.6211 57.499 69.4668 57.6543 69.3649 57.9318C68.9301 59.1163 68.4752 60.2942 67.9301 61.4328C66.8791 63.6279 65.7001 65.7565 64.536 67.8925C64.3905 68.1595 64.2279 68.4241 64.1809 68.7682C64.5927 68.7245 64.9227 68.5347 65.2673 68.4005C66.2628 68.0127 67.2522 67.6014 68.0961 66.9282C69.9228 65.4709 70.9371 63.5098 71.5312 61.298C71.9561 59.7161 72.2326 58.1025 72.5513 56.4297Z" fill="white"/>
<path d="M12.3316 25.7076C11.7204 24.7877 11.7339 23.9126 12.3543 23.1181C12.8944 22.4266 13.8236 22.1478 14.6313 22.4351C15.4478 22.7256 15.9654 23.4564 15.9857 24.3474C16.0051 25.1953 15.4578 25.9994 14.6428 26.3207C13.8184 26.6456 12.9885 26.4321 12.3316 25.7076Z" fill="white"/>
</svg>
