<svg width="24" height="24" viewBox="0 0 24 24" fill="none" xmlns="http://www.w3.org/2000/svg">
<path d="M20.172 4.61006C19.1103 3.54806 17.7027 2.90238 16.2052 2.79044C14.7077 2.67849 13.2198 3.10772 12.012 4.00006C10.7396 3.0537 9.15599 2.62457 7.57991 2.7991C6.00384 2.97362 4.55243 3.73884 3.51797 4.94064C2.4835 6.14245 1.94282 7.69158 2.0048 9.27607C2.06677 10.8606 2.72681 12.3627 3.85199 13.4801L11.302 20.9301C11.395 21.0238 11.5056 21.0982 11.6274 21.1489C11.7493 21.1997 11.88 21.2259 12.012 21.2259C12.144 21.2259 12.2747 21.1997 12.3966 21.1489C12.5184 21.0982 12.629 21.0238 12.722 20.9301L20.172 13.4801C20.7546 12.8978 21.2169 12.2064 21.5322 11.4454C21.8476 10.6844 22.0099 9.86879 22.0099 9.04506C22.0099 8.22133 21.8476 7.40567 21.5322 6.64469C21.2169 5.88371 20.7546 5.19233 20.172 4.61006ZM18.762 12.0701L12.012 18.8101L5.26199 12.0701C4.66717 11.4728 4.26197 10.7131 4.09722 9.8864C3.93248 9.05969 4.01553 8.20274 4.33595 7.42305C4.65637 6.64336 5.19989 5.97565 5.89834 5.50368C6.59679 5.03171 7.41905 4.7765 8.26199 4.77006C9.38811 4.77282 10.4671 5.22239 11.262 6.02006C11.355 6.11379 11.4656 6.18818 11.5874 6.23895C11.7093 6.28972 11.84 6.31586 11.972 6.31586C12.104 6.31586 12.2347 6.28972 12.3566 6.23895C12.4784 6.18818 12.589 6.11379 12.682 6.02006C13.5003 5.31094 14.5575 4.9392 15.6395 4.98008C16.7216 5.02096 17.7477 5.47141 18.5102 6.24025C19.2727 7.00909 19.7146 8.0389 19.7465 9.12125C19.7784 10.2036 19.3979 11.2576 18.682 12.0701H18.762Z" fill="#979797"/>
</svg>
