<svg width="14" height="17" viewBox="0 0 14 17" fill="none" xmlns="http://www.w3.org/2000/svg">
<path d="M12.5801 6.80005C12.5801 10.4274 10.18 15.6401 6.8 15.6401C3.42002 15.6401 1.02015 10.4274 1.02015 6.80005C1.02015 3.17276 3.42002 0.680054 6.8 0.680054C10.18 0.680054 12.5801 3.17276 12.5801 6.80005Z" fill="#01142B"/>
<path d="M7.14973 16.523L7.14035 16.53L7.13148 16.5376C7.0391 16.6166 6.92154 16.66 6.79998 16.66C6.67842 16.66 6.56086 16.6166 6.46848 16.5376L6.24748 16.7959L6.47016 16.539L6.46873 16.5378C6.33657 16.4232 4.79832 15.0902 3.2928 13.2229C1.768 11.3317 0.34 8.96858 0.34 6.79998C0.34 5.08669 1.0206 3.44356 2.23208 2.23208C3.44356 1.0206 5.08669 0.34 6.79998 0.34C8.51327 0.34 10.1564 1.0206 11.3679 2.23208C12.5794 3.44356 13.26 5.08669 13.26 6.79998C13.26 8.96929 11.8418 11.3328 10.3227 13.2234C9.57072 14.1593 8.80861 14.9617 8.21592 15.5437C7.91976 15.8346 7.66657 16.0698 7.479 16.2384C7.38519 16.3228 7.30817 16.3901 7.25071 16.4393C7.22194 16.4639 7.19852 16.4835 7.18062 16.4982L7.15891 16.5159L7.15231 16.521L7.15041 16.5225L7.14989 16.5229L7.14973 16.523ZM6.56725 15.2503L6.7994 15.4683L7.03209 15.2509C7.94897 14.3943 9.24091 13.0361 10.3066 11.5277C11.3624 10.0333 12.24 8.33125 12.24 6.79998C12.24 5.3572 11.6668 3.97352 10.6466 2.95333C9.62643 1.93313 8.24275 1.35999 6.79998 1.35999C5.3572 1.35999 3.97352 1.93313 2.95333 2.95333C1.93313 3.97352 1.35999 5.3572 1.35999 6.79998C1.35999 8.33134 2.23764 10.0313 3.29343 11.5246C4.3591 13.0319 5.65093 14.3899 6.56725 15.2503ZM5.09994 4.25569C5.60315 3.91945 6.19477 3.73999 6.79998 3.73999C7.61154 3.73999 8.38986 4.06238 8.96372 4.63624C9.53758 5.2101 9.85997 5.98842 9.85997 6.79998C9.85997 7.40519 9.6805 7.9968 9.34427 8.50002C9.00803 9.00323 8.53013 9.39544 7.97099 9.62704C7.41185 9.85864 6.79658 9.91924 6.203 9.80117C5.60942 9.6831 5.06419 9.39166 4.63624 8.96372C4.20829 8.53577 3.91686 7.99053 3.79879 7.39695C3.68072 6.80337 3.74131 6.18811 3.97292 5.62897C4.20452 5.06983 4.59673 4.59193 5.09994 4.25569ZM5.66662 8.49617C6.00209 8.72033 6.39651 8.83997 6.79998 8.83997C7.34102 8.83997 7.8599 8.62504 8.24247 8.24247C8.62504 7.8599 8.83997 7.34102 8.83997 6.79998C8.83997 6.3965 8.72033 6.00209 8.49617 5.66662C8.27201 5.33114 7.95341 5.06967 7.58065 4.91527C7.20789 4.76087 6.79772 4.72047 6.402 4.79918C6.00627 4.87789 5.64278 5.07219 5.35748 5.35748C5.07219 5.64278 4.8779 6.00627 4.79918 6.40199C4.72047 6.79771 4.76087 7.20789 4.91527 7.58065C5.06967 7.95341 5.33114 8.27201 5.66662 8.49617Z" fill="white" stroke="#01142B" stroke-width="0.68"/>
</svg>
