<svg width="24" height="24" viewBox="0 0 24 24" fill="none" xmlns="http://www.w3.org/2000/svg">
<path d="M13.0174 22.9565C12.9652 22.9565 12.913 22.9565 12.8609 22.9304C12.3913 22.8521 12.0261 22.4869 12 22.0174L11.0869 12.9391L1.9826 12.0261C1.51304 11.9739 1.12173 11.6087 1.06956 11.1652C0.991296 10.6956 1.25217 10.2521 1.66956 10.0435L21.4956 1.1478C21.8869 0.965191 22.3565 1.04345 22.6696 1.3565C22.9826 1.66954 23.0609 2.1391 22.8783 2.53041L13.9826 22.3565C13.8 22.7217 13.4087 22.9565 13.0174 22.9565ZM6.07825 10.3565L12.1043 10.9565C12.6 11.0087 12.9913 11.4 13.0435 11.8956L13.6696 17.9217L19.8261 4.17389L6.07825 10.3565Z" fill="#979797"/>
</svg>
