<svg width="26" height="26" viewBox="0 0 26 26" fill="none" xmlns="http://www.w3.org/2000/svg">
<path d="M4.55078 18.436C4.55161 17.8896 4.76914 17.3658 5.15565 16.9796C5.54216 16.5934 6.06609 16.3762 6.6125 16.3758H12.1258C12.4531 16.3758 12.7771 16.3114 13.0795 16.1861C13.3819 16.0609 13.6566 15.8773 13.888 15.6459C14.1194 15.4145 14.303 15.1397 14.4283 14.8374C14.5535 14.535 14.618 14.2109 14.618 13.8836C14.618 13.5564 14.5535 13.2323 14.4283 12.9299C14.303 12.6276 14.1194 12.3528 13.888 12.1214C13.6566 11.89 13.3819 11.7064 13.0795 11.5812C12.7771 11.4559 12.4531 11.3914 12.1258 11.3914H9.41406V12.2336H12.1258C12.3454 12.2289 12.5638 12.268 12.7681 12.3487C12.9725 12.4295 13.1586 12.5502 13.3156 12.7039C13.4727 12.8575 13.5974 13.041 13.6826 13.2435C13.7678 13.4461 13.8117 13.6635 13.8117 13.8832C13.8117 14.103 13.7678 14.3204 13.6826 14.523C13.5974 14.7255 13.4727 14.9089 13.3156 15.0626C13.1586 15.2163 12.9725 15.337 12.7681 15.4177C12.5638 15.4985 12.3454 15.5376 12.1258 15.5329H6.6125C5.84254 15.5329 5.10412 15.8387 4.55968 16.3832C4.01524 16.9276 3.70937 17.666 3.70937 18.436C3.70937 19.2059 4.01524 19.9444 4.55968 20.4888C5.10412 21.0332 5.84254 21.3391 6.6125 21.3391H16.9203V20.5H6.6125C6.06542 20.4996 5.5409 20.282 5.15427 19.8949C4.76765 19.5078 4.55057 18.9831 4.55078 18.436ZM19.4062 13.6875C19.0244 13.6856 18.6459 13.76 18.2932 13.9062C17.9404 14.0525 17.6204 14.2677 17.3518 14.5393C17.0833 14.8108 16.8718 15.1333 16.7295 15.4877C16.5872 15.8421 16.5172 16.2213 16.5234 16.6032C16.5234 18.3344 17.5008 19.7508 19.4062 21.4071C21.3031 19.7508 22.2883 18.3344 22.2883 16.6032C22.2939 16.2216 22.2234 15.8427 22.081 15.4886C21.9386 15.1345 21.727 14.8124 21.4587 14.5409C21.1904 14.2695 20.8707 14.0543 20.5183 13.9077C20.1659 13.7612 19.7879 13.6864 19.4062 13.6875ZM19.4062 17.6555C19.1916 17.6555 18.9818 17.5919 18.8034 17.4726C18.6249 17.3534 18.4858 17.1839 18.4037 16.9856C18.3216 16.7873 18.3001 16.5692 18.3419 16.3587C18.3838 16.1482 18.4872 15.9548 18.6389 15.803C18.7907 15.6513 18.984 15.5479 19.1945 15.5061C19.405 15.4642 19.6232 15.4857 19.8215 15.5678C20.0198 15.6499 20.1893 15.789 20.3085 15.9675C20.4278 16.1459 20.4914 16.3557 20.4914 16.5704C20.4892 16.8575 20.3741 17.1322 20.1711 17.3352C19.9681 17.5382 19.6934 17.6533 19.4062 17.6555ZM6.92891 12.3125C8.82578 10.6555 9.81172 9.23911 9.81172 7.50864C9.81801 7.12612 9.74811 6.74617 9.60608 6.39094C9.46406 6.03571 9.25274 5.71231 8.98446 5.43957C8.71618 5.16684 8.3963 4.95023 8.04345 4.80237C7.69061 4.65452 7.31187 4.57837 6.9293 4.57837C6.54673 4.57837 6.16798 4.65452 5.81514 4.80237C5.4623 4.95023 5.14241 5.16684 4.87413 5.43957C4.60585 5.71231 4.39453 6.03571 4.25251 6.39094C4.11048 6.74617 4.04058 7.12612 4.04687 7.50864C4.04687 9.23911 5.02422 10.6563 6.92891 12.3125ZM5.83594 7.47504C5.83517 7.25968 5.89826 7.04893 6.01726 6.86942C6.13625 6.68992 6.30579 6.54972 6.50444 6.46656C6.7031 6.3834 6.92196 6.361 7.13334 6.4022C7.34473 6.4434 7.53915 6.54635 7.69203 6.69803C7.84492 6.84971 7.9494 7.04332 7.99226 7.25437C8.03513 7.46543 8.01446 7.68445 7.93287 7.88376C7.85127 8.08306 7.71242 8.25371 7.53386 8.37411C7.3553 8.49451 7.14505 8.55927 6.92969 8.5602C6.64109 8.56021 6.36418 8.44615 6.15931 8.24289C5.95444 8.03963 5.8382 7.76363 5.83594 7.47504Z" fill="#526178"/>
</svg>
